<svg data-v-37f88cd9="" version="1.0" xmlns="http://www.w3.org/2000/svg" xmlns:xlink="http://www.w3.org/1999/xlink" width="100%" height="100%" viewBox="0 0 340.000000 250.000000" preserveAspectRatio="xMidYMid meet" color-interpolation-filters="sRGB" class="el-tooltip" style="margin: auto;"><rect data-v-37f88cd9="" x="0" y="0" width="100%" height="100%" fill="#ffffff" fill-opacity="1"></rect> <rect data-v-37f88cd9="" x="0" y="0" width="100%" height="100%" fill="url(#watermark)" fill-opacity="1" class="watermarklayer"></rect> <g data-v-37f88cd9="" fill="#00b140" class="icon-text-wrapper icon-svg-group iconsvg" transform="translate(116.28250122070312,53.20124816894531)"><g fill="#00b140" class="iconsvg-imagesvg" transform="translate(19.100311279296875,0)"><rect fill="#00b140" fill-opacity="0" stroke-width="2" x="0" y="0" width="69.234375" height="69.234375" class="image-rect"></rect> <svg filter="url(#colors4765816059)" viewBox="0 0 60 66.70370596426504" x="0" y="0" width="69.234375" height="69.234375" hollow-target="" class="image-svg-svg"><g><svg xmlns="http://www.w3.org/2000/svg" xmlns:xlink="http://www.w3.org/1999/xlink" version="1.1" x="0" y="0" viewBox="9.5 5 81 90.05000305175781" style="enable-background:new 0 0 100 100;" xml:space="preserve" width="60" height="66.70370596426504" filtersec="colorsf9328210217"><path d="M90.5,68.6V31.4c0-2.8-1.5-5.4-4-6.8L54,6c-1.2-0.7-2.6-1-4-1s-2.7,0.3-4,1L13.5,24.6c-2.4,1.4-4,4-4,6.8v37.2  c0,2.8,1.5,5.4,4,6.8L46,94c2.4,1.4,5.5,1.4,7.9,0l32.6-18.6C89,74,90.5,71.4,90.5,68.6z M83.3,64.4c0,2.8-1.5,5.5-4,6.9L54,85.7  c-1.2,0.7-2.6,1.1-4,1.1s-2.8-0.4-4-1.1L20.7,71.3c-2.5-1.4-4-4.1-4-6.9V35.6c0-2.8,1.5-5.5,4-6.9L46,14.3c2.5-1.4,5.6-1.4,8.1,0  l25.2,14.4c2.5,1.4,4,4.1,4,6.9V64.4z"></path></svg></g> <g><svg xmlns="http://www.w3.org/2000/svg" viewBox="0 0 89 102.7" width="35" height="38.910495145821" x="12.5" y="13.896605409222019"><path d="M24.6 89V57.7c0-11 19.9-19.9 19.9-19.9s19.9 8.9 19.9 19.9V89m-.1-16.2v-28c0-11-19.9-19.9-19.9-19.9s-19.9 8.9-19.9 19.9v28m39.8-11.1v-28c0-11-19.9-19.9-19.9-19.9s-19.9 8.9-19.9 19.9v28M2 75.9l42.5 24.5L87 75.9V26.8L44.5 2.3 2 26.8v49.1zm73.9-55.4v61.8M13.1 20.5v61.8" fill="none" stroke="#202121" stroke-width="4" stroke-miterlimit="10"></path></svg></g></svg> <defs><filter id="colors4765816059"><feColorMatrix type="matrix" values="0 0 0 0 0  0 0 0 0 0.69140625  0 0 0 0 0.25  0 0 0 1 0" class="icon-fecolormatrix"></feColorMatrix></filter> <filter id="colorsf9328210217"><feColorMatrix type="matrix" values="0 0 0 0 0.99609375  0 0 0 0 0.99609375  0 0 0 0 0.99609375  0 0 0 1 0" class="icon-fecolormatrix"></feColorMatrix></filter> <filter id="colorsb9899279371"><feColorMatrix type="matrix" values="0 0 0 0 0  0 0 0 0 0  0 0 0 0 0  0 0 0 1 0" class="icon-fecolormatrix"></feColorMatrix></filter></defs></g> <g transform="translate(0,76.234375)"><g class="tp-name iconsvg-namesvg" transform="translate(0.154998779296875,0)"><g><path d="M2.97-7.26L11.82-13.64L2.86-13.64L2.86-19.58L52.14-19.58L52.14-13.64L21.95-13.64L18.64-11.28L49.77-11.28L49.77 3.79L8.80 3.79L8.80-4.18L6.43-2.48ZM51.31-43.84L51.31-21.39L26.62-21.39L26.62-43.84L35.37-43.84L35.37-45.59L41.25-45.59L41.25-43.84ZM3.85-27.50L11.55-27.50L11.55-30.09L4.95-30.09L4.95-35.97L11.55-35.97L11.55-38.50L4.40-38.50L4.40-44.44L24.64-44.44L24.64-38.50L17.43-38.50L17.43-35.97L24.09-35.97L24.09-30.09L17.43-30.09L17.43-27.50L25.19-27.50L25.19-21.56L3.85-21.56ZM45.43-27.34L45.43-37.95L32.56-37.95L32.56-27.34ZM43.84-5.39L14.69-5.39L14.69-2.09L43.84-2.09ZM38.83-27.39L33.77-32.78L39.10-37.84L44.16-32.51ZM82.06-7.65L73.53-7.65L73.53-2.04L76.84-2.04L79.14-5.45L84.04-2.20L79.97 3.90L57.80 3.90L57.80-2.04L67.59-2.04L67.59-7.65L59.07-7.65L59.07-13.59L67.59-13.59L67.59-17.66L58.91-17.66L58.91-44.44L82.28-44.44L82.28-17.66L73.53-17.66L73.53-13.59L82.06-13.59ZM101.20-15.13L101.20-19.80L97.19-19.80L97.19 3.85L86.90 3.85L86.90-2.09L91.25-2.09L91.25-19.80L83.22-19.80L83.22-25.74L88.77-25.74L83.66-33.38L88.55-36.69L94.10-28.38L99.44-38.23L84.15-38.23L84.15-44.16L105.93-44.16L105.93-37.79L99.50-25.74L107.14-25.74L107.14-15.13ZM76.34-23.59L76.34-28.11L73.53-28.11L73.53-23.59ZM76.34-38.50L73.53-38.50L73.53-34.05L76.34-34.05ZM64.84-23.59L67.59-23.59L67.59-28.11L64.84-28.11ZM64.84-34.05L67.59-34.05L67.59-38.50L64.84-38.50Z" transform="translate(-2.86, 45.595)"></path></g> <!----> <!----> <!----> <!----> <!----> <!----> <!----></g> <g class="tp-slogan iconsvg-slogansvg" fill="#00b140" transform="translate(0,56.4900016784668)"><!----> <rect x="0" height="1" y="4.934999942779541" width="0"></rect> <rect height="1" y="4.934999942779541" width="0" x="104.27999877929688"></rect> <g transform="translate(3,0)"><path d="M11.16-4.97L11.16-4.97L11.16-3.80Q10.41-3.89 9-3.89L9-3.89L3.05-3.89Q1.55-3.89 0.75-3.80L0.75-3.80L0.75-4.97Q1.64-4.88 2.95-4.88L2.95-4.88L8.91-4.88Q10.41-4.88 11.16-4.97ZM14.12-9.70L14.12-9.70Q14.64-9.66 15.34-9.38L15.34-9.38Q15.53-9.23 15.25-9.05L15.25-9.05Q15.06-8.91 15.01-8.81L15.01-8.81Q14.87-8.58 14.73-8.34L14.73-8.34Q14.68-8.25 14.64-8.20L14.64-8.20L17.92-8.20Q19.00-8.20 19.70-8.30L19.70-8.30Q18.81-6.70 17.31-5.20L17.31-5.20Q16.09-4.03 14.92-3.52L14.92-3.52L18.62-3.52Q19.65-3.52 19.84-3.52L19.84-3.52Q19.84-3.47 19.79-3.33L19.79-3.33Q19.70-2.58 19.70-2.30L19.70-2.30L19.70-0.14Q19.70 0.75 19.84 1.17L19.84 1.17L18.67 1.17Q18.72 1.13 18.72 0.28L18.72 0.28L13.89 0.28Q13.89 0.98 13.98 1.17L13.98 1.17L12.81 1.17Q12.90 0.84 12.90 0L12.90 0L12.90-2.44Q11.92-1.92 10.65-1.55L10.65-1.55Q10.47-1.88 10.09-2.34L10.09-2.34Q9.90-2.58 9.90-2.58L9.90-2.58Q12.48-3.05 14.82-4.55L14.82-4.55Q14.22-5.20 13.32-5.63L13.32-5.63L14.26-6.33Q15.11-5.72 15.72-5.11L15.72-5.11Q16.98-6.05 17.87-7.36L17.87-7.36L14.07-7.36Q13.00-6 11.82-4.92L11.82-4.92L10.75-5.53Q11.82-6.14 12.81-7.36L12.81-7.36Q13.61-8.34 14.12-9.70ZM18.72-0.47L18.72-2.67L13.89-2.67L13.89-0.47L18.72-0.47ZM26.94-9.70L26.94-9.70Q27.88-9.56 28.16-9.33L28.16-9.33Q28.16-9.28 28.07-9.14L28.07-9.14Q27.65-8.72 27.18-7.92L27.18-7.92L28.68-7.92Q29.94-7.92 30.97-8.02L30.97-8.02L30.97-6.89Q30.46-6.98 28.68-6.98L28.68-6.98L22.11-6.98Q21.08-6.98 20.00-6.89L20.00-6.89L20.00-8.02Q21.32-7.92 22.07-7.92L22.07-7.92L23.66-7.92Q23.33-8.72 22.86-9.28L22.86-9.28L23.75-9.61Q24.22-9.05 24.69-8.30L24.69-8.30L23.80-7.92L26.19-7.92Q26.66-8.53 26.94-9.70ZM28.63-6.38L28.63-6.38Q29.85-6.38 29.90-6.23L29.90-6.23Q29.90-6.14 29.80-6L29.80-6Q29.66-5.72 29.66-5.39L29.66-5.39L29.66 0.19Q29.71 1.13 27.55 1.17L27.55 1.17Q27.55 0.61 27.13 0.05L27.13 0.05Q28.58 0.23 28.68-0.42L28.68-0.42L28.68-5.34Q28.68-5.77 28.63-6.38ZM26.47-5.81L26.47-5.81Q27.65-5.81 27.69-5.67L27.69-5.67Q27.69-5.58 27.65-5.39L27.65-5.39Q27.55-5.16 27.55-4.97L27.55-4.97L27.55-2.58Q27.55-1.45 27.60-0.94L27.60-0.94L26.47-0.94Q26.47-1.08 26.47-1.50L26.47-1.50Q26.52-2.20 26.52-2.63L26.52-2.63L26.52-5.11Q26.52-5.81 26.47-5.81ZM24.50-5.44L22.11-5.44L22.11-4.22L24.50-4.22L24.50-5.44ZM24.50-2.25L24.50-3.52L22.11-3.52L22.11-2.25L24.50-2.25ZM21.13-6.28L21.13-6.28Q21.79-6.19 22.21-6.23L22.21-6.23L24.41-6.23Q24.79-6.19 25.49-6.28L25.49-6.28Q25.35-5.86 25.40-5.58L25.40-5.58L25.40 0.05Q25.44 0.98 23.57 1.03L23.57 1.03Q23.57 0.38 23.10-0.05L23.10-0.05Q24.41 0.14 24.50-0.19L24.50-0.19L24.50-1.55L22.11-1.55L22.11-0.38Q22.11 0.42 22.25 0.98L22.25 0.98L21.08 0.98Q21.22 0.05 21.22-0.33L21.22-0.33L21.22-5.58Q21.22-5.86 21.13-6.28ZM36.24-9.47L36.24-9.47Q37.31-9.47 37.31-9.33L37.31-9.33Q37.31-9.28 37.31-9.19L37.31-9.19Q37.22-9 37.22-8.86L37.22-8.86L37.22-7.08L38.58-7.08L38.58-8.30Q38.58-8.77 38.53-8.91L38.53-8.91Q38.63-8.91 38.86-8.86L38.86-8.86Q39.66-8.86 39.61-8.72L39.61-8.72Q39.61-8.67 39.56-8.58L39.56-8.58Q39.47-8.39 39.47-7.97L39.47-7.97L39.47-7.41Q39.47-6.52 39.56-6.23L39.56-6.23Q38.58-6.33 37.50-6.33L37.50-6.33L35.81-6.33Q34.78-6.33 34.13-6.23L34.13-6.23Q34.22-6.75 34.22-7.59L34.22-7.59Q34.22-8.67 34.13-8.95L34.13-8.95Q35.16-8.95 35.20-8.81L35.20-8.81Q35.20-8.77 35.16-8.72L35.16-8.72Q35.11-8.53 35.11-8.34L35.11-8.34L35.11-7.08L36.33-7.08L36.33-8.67Q36.33-9.33 36.24-9.47ZM30.89-9L31.88-9.23Q32.11-8.81 32.53-7.55L32.53-7.55L31.45-7.27Q31.31-8.02 30.89-9L30.89-9ZM29.44-6.23L29.44-7.08Q29.53-7.08 29.91-7.08L29.91-7.08Q30.47-7.03 30.84-7.03L30.84-7.03L32.16-7.03Q33.19-7.08 33.70-7.13L33.70-7.13L33.70-6.23Q33.42-6.28 32.16-6.28L32.16-6.28L30.80-6.28Q29.81-6.28 29.44-6.23L29.44-6.23ZM32.34-5.77L32.34-5.77Q33.47-5.58 33.42-5.48L33.42-5.48Q33.42-5.44 33.38-5.34L33.38-5.34Q33.19-5.11 33.09-4.78L33.09-4.78Q32.72-2.95 32.34-1.59L32.34-1.59L33.47-1.83L33.42-1.03Q32.49-0.80 31.36-0.47L31.36-0.47Q30.00-0.05 29.67 0L29.67 0Q29.49-0.56 29.39-1.08L29.39-1.08L31.55-1.41Q32.16-3.89 32.34-5.77ZM30.14-5.44L31.03-5.53Q31.31-4.17 31.45-2.39L31.45-2.39L30.52-2.30Q30.38-4.03 30.14-5.44L30.14-5.44ZM40.27-5.53L40.27-5.53L40.27-4.64Q39.47-4.73 38.34-4.73L38.34-4.73L37.13-4.73Q37.03-4.36 36.80-3.66L36.80-3.66L38.20-3.66Q39.14-3.66 39.84-3.66L39.84-3.66Q39.75-2.91 39.75-2.20L39.75-2.20L39.75 0.14Q39.94 0.80 38.30 0.94L38.30 0.94Q38.25 0.33 37.97-0.05L37.97-0.05Q39.00 0.05 38.95-0.42L38.95-0.42L38.95-2.91L37.88-2.91L37.88-1.03Q37.88-0.56 37.92-0.14L37.92-0.14L37.08-0.14Q37.17-0.42 37.17-1.03L37.17-1.03L37.17-2.91L36.28-2.91L36.28-1.13Q36.28-0.14 36.33-0.09L36.33-0.09L35.49-0.09Q35.58-0.23 35.58-1.17L35.58-1.17L35.58-2.91L34.74-2.91L34.74-0.33Q34.74 0.70 34.78 0.75L34.78 0.75L33.84 0.75Q33.94 0.47 33.94-0.33L33.94-0.33L33.94-2.25Q33.94-3 33.84-3.70L33.84-3.70Q34.03-3.66 35.95-3.66L35.95-3.66Q36.05-3.84 36.14-4.50L36.14-4.50Q36.19-4.69 36.19-4.73L36.19-4.73L35.30-4.73Q34.92-4.73 34.31-4.69L34.31-4.69Q33.94-4.69 33.75-4.69L33.75-4.69L33.75-5.53Q34.36-5.48 35.34-5.48L35.34-5.48L38.34-5.48Q39.89-5.48 40.27-5.53ZM41.70-8.81L42.49-8.81L39.59 0.14L38.88 0.14L41.70-8.81ZM44.95-7.64L42.61-7.64L42.61-4.64L44.91-4.64Q46.69-4.64 46.69-6.19L46.69-6.19Q46.69-7.59 44.95-7.64L44.95-7.64ZM45.33-3.61L42.61-3.61L42.61 0L41.44 0L41.44-8.58L45.33-8.58Q47.77-8.48 47.86-6.19L47.86-6.19Q47.72-3.70 45.33-3.61L45.33-3.61ZM53.59-8.58L50.36-3.47L50.36 0L49.19 0L49.19-3.47L45.95-8.58L47.31-8.58L49.75-4.45L52.23-8.58L53.59-8.58ZM54.21-7.59L51.31-7.59L51.31-8.58L58.24-8.58L58.24-7.59L55.34-7.59L55.34 0L54.21 0L54.21-7.59ZM57.83-5.06L62.33-5.06L62.33-8.58L63.51-8.58L63.51 0L62.33 0L62.33-3.98L57.83-3.98L57.83 0L56.66 0L56.66-8.58L57.83-8.58L57.83-5.06ZM69.47-4.27L69.47-4.27Q69.28-7.64 66.47-7.83L66.47-7.83Q63.61-7.69 63.47-4.27L63.47-4.27Q63.61-0.94 66.47-0.80L66.47-0.80Q69.28-0.98 69.47-4.27ZM70.64-4.27L70.64-4.27Q70.36 0 66.47 0.14L66.47 0.14Q62.53 0 62.25-4.27L62.25-4.27Q62.49-8.72 66.47-8.81L66.47-8.81Q70.36-8.67 70.64-4.27ZM70.80-8.58L75.11-1.64L75.11-8.58L76.23-8.58L76.23 0L74.92 0L70.56-6.94L70.51-6.94L70.51 0L69.39 0L69.39-8.58L70.80-8.58ZM85.77-8.91L85.77-8.91L85.77-7.88Q85.73-7.88 85.54-7.88L85.54-7.88Q84.60-7.97 83.76-7.97L83.76-7.97L83.52-7.97L83.52-4.83L84.41-4.83Q85.73-4.83 86.38-4.92L86.38-4.92Q86.48-4.92 86.52-4.92L86.52-4.92L86.52-3.84Q86.48-3.84 86.38-3.84L86.38-3.84Q85.59-3.94 84.46-3.94L84.46-3.94L83.52-3.94L83.52-0.66Q83.52 0.19 83.62 0.80L83.62 0.80Q83.62 0.89 83.62 0.94L83.62 0.94L82.44 0.94Q82.44 0.94 82.44 0.84L82.44 0.84Q82.54 0.19 82.54-0.66L82.54-0.66L82.54-3.94L80.29-3.94Q79.96-0.75 77.19 0.89L77.19 0.89Q76.87 0.47 76.07 0L76.07 0Q78.79-0.56 79.30-3.94L79.30-3.94L77.99-3.94Q76.96-3.94 76.12-3.84L76.12-3.84Q75.98-3.84 75.98-3.84L75.98-3.84L75.98-4.92Q75.98-4.92 76.12-4.92L76.12-4.92Q76.96-4.83 77.94-4.83L77.94-4.83L79.35-4.83Q79.40-5.58 79.35-7.97L79.35-7.97L78.84-7.97Q77.90-7.97 77.01-7.88L77.01-7.88Q76.87-7.88 76.87-7.88L76.87-7.88L76.87-8.91Q76.87-8.91 77.01-8.91L77.01-8.91Q77.94-8.81 78.88-8.81L78.88-8.81L83.76-8.81Q84.65-8.81 85.49-8.91L85.49-8.91Q85.68-8.91 85.77-8.91ZM82.54-7.97L80.34-7.97Q80.34-8.11 80.34-7.45L80.34-7.45Q80.34-5.81 80.29-4.83L80.29-4.83L82.54-4.83L82.54-7.97ZM89.82-9.66L89.82-9.66Q91.18-9.66 91.22-9.52L91.22-9.52Q91.22-9.47 91.13-9.38L91.13-9.38Q90.99-9.19 90.94-9.05L90.94-9.05Q90.57-8.02 90.33-6.94L90.33-6.94L93.75-6.94Q94.64-6.94 95.35-7.03L95.35-7.03Q95.44-7.03 95.49-7.03L95.49-7.03L95.49-6Q95.49-6 95.39-6L95.39-6Q94.88-6.09 93.75-6.09L93.75-6.09L90.05-6.09Q89.86-5.48 89.58-4.83L89.58-4.83Q93.24-4.83 94.41-4.97L94.41-4.97Q93.47-2.39 91.97-1.03L91.97-1.03Q93.94 0 95.96-0.09L95.96-0.09Q95.49 0.28 95.21 1.08L95.21 1.08Q92.82 0.52 91.22-0.47L91.22-0.47Q89.44 0.56 87.19 1.08L87.19 1.08Q86.96 0.61 86.35 0.09L86.35 0.09Q88.50-0.05 90.52-1.13L90.52-1.13Q89.53-2.48 89.07-3.80L89.07-3.80Q87.94-1.50 85.93 0.05L85.93 0.05Q85.50-0.42 84.99-0.66L84.99-0.66Q87.75-2.34 89.07-6.09L89.07-6.09L88.18-6.09Q86.91-6.05 86.07-5.72L86.07-5.72Q86.02-5.72 86.02-5.72L86.02-5.72L85.60-6.75Q86.72-7.03 87.10-9.19L87.10-9.19Q88.18-8.86 88.36-8.72L88.36-8.72Q88.36-8.67 88.22-8.58L88.22-8.58Q87.99-8.39 87.85-8.20L87.85-8.20Q87.80-8.11 87.61-7.78L87.61-7.78Q87.28-7.22 87.10-6.94L87.10-6.94L89.35-6.94Q89.68-8.16 89.82-9.66ZM92.02-8.67L93.00-9.33Q93.94-8.39 94.36-7.73L94.36-7.73L93.43-7.13Q92.72-8.20 92.02-8.67L92.02-8.67ZM92.91-4.08L89.96-4.03Q90.47-2.77 91.27-1.64L91.27-1.64Q92.39-2.58 92.91-4.08L92.91-4.08ZM98.92-9.70L98.92-9.70Q100.28-9.70 100.19-9.61L100.19-9.61Q100.19-9.52 100.09-9.33L100.09-9.33Q99.95-9 99.95-8.77L99.95-8.77L99.95-8.02L100.84-8.02Q101.55-8.02 102.48-8.11L102.48-8.11L102.48-7.31Q102.81-7.55 103.75-8.81L103.75-8.81Q104.83-8.11 104.73-7.97L104.73-7.97Q104.73-7.92 104.59-7.88L104.59-7.88Q104.31-7.73 104.08-7.50L104.08-7.50Q103.61-7.08 102.91-6.47L102.91-6.47Q102.34-6 102.25-5.91L102.25-5.91L103.61-5.91Q104.78-5.91 105.34-6L105.34-6L105.34-5.02Q104.73-5.11 103.66-5.11L103.66-5.11L101.31-5.11Q100.47-4.45 99.77-4.03L99.77-4.03Q99.63-3.94 99.58-3.89L99.58-3.89L101.45-3.89Q101.97-3.89 103.52-3.98L103.52-3.98Q103.42-2.95 103.42-2.20L103.42-2.20L103.42-0.80Q103.42-0.33 103.52 1.13L103.52 1.13L102.44 1.13Q102.48 0.84 102.48 0.28L102.48 0.28L98.08 0.28Q98.08 0.80 98.13 1.13L98.13 1.13L97.05 1.13Q97.09 0.52 97.09-0.80L97.09-0.80L97.09-2.48Q96.77-2.30 95.13-1.41L95.13-1.41Q94.84-1.88 94.52-2.20L94.52-2.20Q94.42-2.30 94.38-2.34L94.38-2.34Q95.73-2.63 97.05-3.42L97.05-3.42Q97.05-3.75 97.00-3.98L97.00-3.98Q97.42-3.94 98.08-3.94L98.08-3.94Q98.73-4.31 99.91-5.11L99.91-5.11L96.39-5.11Q95.22-5.11 94.56-5.02L94.56-5.02L94.56-6Q95.36-5.91 96.39-5.91L96.39-5.91L99.02-5.91L99.02-7.17L97.98-7.17Q97.00-7.17 96.16-7.08L96.16-7.08L96.16-8.11Q97.00-8.02 97.98-8.02L97.98-8.02L98.97-8.02L98.97-8.91Q99.02-9.38 98.92-9.70ZM100.75-7.17L100.00-7.17L100.00-5.91L100.98-5.91Q101.97-6.66 102.34-7.13L102.34-7.13Q102.06-7.17 100.75-7.17L100.75-7.17ZM102.48-2.11L102.48-3.19L98.03-3.19L98.03-2.11L102.48-2.11ZM102.48-1.36L98.03-1.36L98.03-0.33L102.48-0.33L102.48-1.36Z" transform="translate(-0.75, 9.703125)"></path></g></g></g></g></svg>
